<svg xmlns="http://www.w3.org/2000/svg" width="600" height="600" version="1.0" viewBox="0 0 1408 768"><path d="M673 71.4v25.3l-3.9.7c-14.5 2.3-50.8 18.1-70.1 30.5-60.8 39.2-103.4 105.3-114.5 177.6-3.3 21.7-4.6 54.1-2.6 68 .6 4.8.7 4.7 1.4-4 2.6-32.4 13.6-65.4 31.3-94.7 29.6-48.8 73.7-82.4 130.4-99.2 7.9-2.3 23.4-5.6 26.6-5.6 1.2 0 1.4 8.4 1.5 52.7v52.8l8.5 5.5c4.7 3 11.6 8.7 15.3 12.5l6.9 7.1 7.3-7.1c4.1-3.9 11.1-9.5 15.7-12.5l8.2-5.5v-52.7c0-32.7.4-52.8.9-52.8 4.4 0 25.3 5.1 37.3 9 37.3 12.3 71.4 34.6 97.1 63.5 3.9 4.4 7.3 8 7.6 8s12.3-11.8 26.5-26.3l26-26.3-16-15.7c-17.4-17.3-31-28.6-47.9-39.7-36.2-23.9-72.1-38-115-45-4.9-.8-10.7-1.5-12.7-1.5H735V46h-62z"/><path d="M574.5 122.9c-46.7 22.5-90.2 60-118.2 102.1-28.5 43-43.9 86.7-49.4 140.4-1.5 14.9-.6 54.1 1.5 68.1 5.7 38.1 18 66.2 42 96.5 48.2 60.7 123.2 94.8 201.4 91.6 9-.4 17-1 17.9-1.3.8-.3-3.8-1.7-10.3-3-29.5-5.9-60.2-19.7-85.7-38.4-12-8.8-32.3-28.2-41.4-39.4-19.4-24-39.1-61-50.5-94.5-17.5-51.8-20.3-104.5-8.2-158.2 9.8-43.9 28.2-82 56.8-117.8 9.4-11.8 30-31.7 42.1-40.7 6.1-4.5 11.9-8.9 13-9.7 3.1-2.4 1.8-1.8-11 4.3"/><path d="M570 366.1v101.6l11.3.6c6.1.4 18 2 26.2 3.7 34.6 7.1 63.5 20.3 82.8 38l6.7 6.2v-99c0-54.5-.3-99.7-.6-100.6s-1-1.3-1.5-1-.6-.1-.4-.8c1.4-3.6-12.4-16.6-26.6-25.2-21.1-12.7-60.3-23.5-90.6-24.8l-7.3-.4zm121.8-50c-.3.8-.7.3-1.1-1-.4-1.7-.3-2.1.5-1.3.5.5.8 1.6.6 2.3m-55.1 158.5c-.3.3-1.2.4-1.9.1-.8-.3-.5-.6.6-.6 1.1-.1 1.7.2 1.3.5"/><path d="M535 404.3v105.3l25.8-.4c35.6-.6 62.4 2.8 91.1 11.4 19.3 5.8 38.4 13.8 43.4 18.2 3.1 2.7 1.8.2-2.6-5.1-9-11-20.7-20.8-33.2-28-24.5-14-59.2-22.7-91.1-22.7H556V299h-21zM852 323.5V348h21v-49h-21zM785.2 395l.3 32.1 70.2-.1c38.6 0 70.4.3 70.6.7.9 1.5-5.1 27.1-9.2 39.3-13.4 40-38.3 76-71.6 103.5-18.5 15.2-38.4 26.7-67.5 39-7.4 3.1-16.6 7-20.5 8.7l-7 3.1v36.3c0 33.1.2 36.4 1.6 36.4.9 0 6.1-.9 11.5-2 69.6-14.3 134.3-55.7 177.3-113.5 12.3-16.4 19.2-27.5 27.5-44.3 16.8-33.5 26.8-67.5 31.8-107.2 1.4-11.6 1.8-51.7.5-59.3l-.8-4.7H785z"/><path d="M852 462.4v20.3l-17.7.6c-45.3 1.4-84 15.5-109.4 39.9-6.5 6.2-14.7 15.8-13.5 15.8.3 0 2.8-1.3 5.4-3 13.3-8.1 47.1-18.7 74.7-23.4 16.9-2.8 34-3.8 57.9-3.4l23.6.3V442h-21zM673 589.9v45.8l-8.2.6c-52.4 4.1-106.3-7.8-150.8-33.1-22.4-12.8-37.3-24.3-55.9-43.1-7.4-7.4-13.1-12.9-12.6-12.1s4.6 7.3 9.3 14.3c24.9 38.1 59.3 71.6 95.7 93.4 33.6 20.1 72.9 33.9 110.3 38.8 6.2.8 11.5 1.5 11.8 1.5.2 0 .4 10.8.4 24v24h62V644c0-55-.2-100-.5-100-.6 0-27.7 15-29.1 16.1-.8.6-6.5-2-16.4-7.6-8.4-4.7-15.4-8.5-15.6-8.5s-.4 20.6-.4 45.9"/></svg>